<svg xmlns="http://www.w3.org/2000/svg" fill="none" viewBox="0 0 20 20"><path stroke="currentColor" stroke-linecap="round" stroke-linejoin="round" stroke-width="1.688" d="M3.118 14.079a8 8 0 1 1 2.803 2.803v0l-2.77.784a.659.659 0 0 1-.817-.817l.784-2.77Z"/><path fill="#1E1E1E" d="M12.02 14.662A6.665 6.665 0 0 1 5.336 7.98a2.336 2.336 0 0 1 2.336-2.327.567.567 0 0 1 .5.292l.976 1.702a.676.676 0 0 1-.008.675l-.784 1.31a4.004 4.004 0 0 0 2.01 2.01l1.31-.784a.675.675 0 0 1 .676-.008l1.702.976a.568.568 0 0 1 .292.5 2.344 2.344 0 0 1-2.328 2.336Z"/></svg>