<svg xmlns="http://www.w3.org/2000/svg" fill="none" viewBox="0 0 22 22"><path stroke="currentColor" stroke-linecap="round" stroke-linejoin="round" d="M5.924 14.102a2.974 2.974 0 1 0 0 5.949 2.974 2.974 0 0 0 0-5.948v0ZM19.18 3.821a2.974 2.974 0 0 0-4.207 0l-3.1 2.846 1.114 1.115 1.942-.646a1.46 1.46 0 0 1-.083-.469 1.487 1.487 0 1 1 1.487 1.487 1.46 1.46 0 0 1-.468-.082l-.647 1.94 1.115 1.116 2.846-3.101a2.974 2.974 0 0 0 0-4.206v0Z" clip-rule="evenodd"/><path stroke="currentColor" stroke-linecap="round" stroke-linejoin="round" d="m8.027 19.18 7.935-8.051M3.322 15.59l6.692-12.64"/></svg>