<svg xmlns="http://www.w3.org/2000/svg" fill="none" viewBox="0 0 20 20"><path fill="currentColor" fill-rule="evenodd" d="M9.73 1c-2.4 0-2.691 0-3.564.075-.946 0-1.601.15-2.183.375A4.658 4.658 0 0 0 2.455 2.5c-.51.525-.8.975-1.018 1.575-.219.6-.364 1.275-.364 2.25C1 7.225 1 7.525 1 10c0 2.475 0 2.775.073 3.675.073.975.218 1.575.436 2.175.146.6.437 1.125.946 1.65.51.525.946.825 1.528 1.05.582.225 1.164.375 2.11.45H9.73c2.4 0 2.691 0 3.565-.075.945-.075 1.527-.225 2.11-.45.581-.225 1.09-.525 1.527-1.05.51-.525.8-.975 1.019-1.575.218-.6.364-1.2.436-2.175.073-.9.073-1.2.073-3.675 0-2.475 0-2.775-.073-3.675-.072-.975-.218-1.575-.436-2.175-.146-.6-.437-1.125-.946-1.65-.51-.525-.946-.825-1.528-1.05-.582-.225-1.164-.375-2.11-.45H9.731Zm.002 1.651c2.328 0 2.62 0 3.565.075.873.075 1.31.15 1.6.3.437.15.728.375 1.02.675.29.3.508.6.654 1.05.145.3.29.825.29 1.65.074.975.074 1.2.074 3.6 0 2.4 0 2.7-.073 3.6a7.914 7.914 0 0 1-.254 1.502l-.037.148c-.146.45-.364.75-.655 1.05-.29.3-.582.525-1.018.675-.291.15-.8.3-1.601.3-.946.075-1.164.075-3.565.075-2.328 0-2.62 0-3.565-.075a7.282 7.282 0 0 1-1.457-.261l-.144-.039c-.436-.15-.727-.375-1.018-.675-.291-.3-.51-.6-.655-1.05-.145-.3-.29-.825-.29-1.65-.001-.38-.012-.646-.025-.97A55.217 55.217 0 0 1 2.529 10c0-2.4 0-2.7.073-3.675 0-.825.146-1.35.291-1.65.146-.45.364-.75.655-1.05.29-.3.582-.525 1.018-.675.291-.15.8-.3 1.601-.3.946-.075 1.164-.075 3.565 0Zm-4.513 7.35c0-2.55 2.037-4.65 4.51-4.65 2.474 0 4.511 2.1 4.511 4.65 0 2.55-2.037 4.65-4.51 4.65-2.474 0-4.511-2.1-4.511-4.65Zm4.51 2.997c-1.601 0-2.91-1.35-2.91-3s1.309-3 2.91-3c1.6 0 2.91 1.35 2.91 3s-1.31 3-2.91 3Zm4.657-6.748c.582 0 1.018-.45 1.018-1.05 0-.6-.436-1.05-1.018-1.05-.582 0-1.019.45-1.019 1.05 0 .6.437 1.05 1.019 1.05Z" clip-rule="evenodd"/></svg>