<svg xmlns="http://www.w3.org/2000/svg" fill="none" viewBox="0 0 145 51">
      <path fill="currentColor" d="M23.733 3.954c1.21 3.418 1.232 6.56.065 9.427-1.801 4.425-6.091 9.548-11.043 9.95-6.076.491-5.85-5.514-3.818-9.282 2.916-5.42 7.28-9.018 13.09-10.798a.266.266 0 0 0 .182-.187.276.276 0 0 0-.062-.26C17.15-2.738 8.611 3.057 5.354 7.427c-.097.127-.199.129-.306.005-.077-.094-.083-.184-.02-.271C8.861 2.082 17.441-3.221 22.995 2.77c.117.127.26.172.427.135 6.517-1.46 11.128-.456 18.107 1.14.16.038.33.026.487-.036 4.872-1.957 9.277-2.855 14.525-2.002.348.057.689.28 1.023.667 2.153 2.474-3.587 3.708-5.022 3.884-3.616.438-7.04.336-10.27-.306-1.074-.214-1.989-.345-2.745-.392a.763.763 0 0 0-.471.13c-6.076 4.12-8.736 10.146-12.062 16.372-2.99 5.59-6.267 9.036-12.042 11.199-3.477 1.3-9.216 1.866-12.578-.452-2.589-1.78-3.015-7.375 1.089-6.497a.55.55 0 0 1 .306.186c1.37 1.72-.391 4.35-2.153 2.76a.367.367 0 0 1-.115-.337c.047-.261.01-.507-.11-.738-.124-.24-.221-.23-.291.03-.873 3.317 2.558 5.279 5.293 5.58 10.561 1.159 15.915-9.052 20.496-16.588 2.94-4.84 6.795-8.74 11.564-11.7a.11.11 0 0 0 .022-.177.11.11 0 0 0-.062-.029c-4.902-.858-9.407-2.057-14.46-1.966-.224.003-.297.11-.22.32Zm19.542.421c3.066.537 11.931 2.539 14.134-.18a.783.783 0 0 0-.301-1.215c-4.19-1.79-9.784-.612-13.868 1.104a.15.15 0 0 0 .035.291Zm-21.027-.532C15.855 5.514 7.843 12.002 8.013 19.056c.1 3.888 4.561 4.6 7.28 2.885 5.404-3.402 9.71-10.933 7.823-17.6a.71.71 0 0 0-.332-.426.72.72 0 0 0-.536-.072ZM125.562 29.708c.161.007.248.052.261.135a13.768 13.768 0 0 1-4.25 3.578c-3.552 1.921-6.773.11-6.572-4.205a.234.234 0 0 0-.038-.139.228.228 0 0 0-.374-.001c-1.134 1.6-4.711 6.452-7.124 4.761-1.676-1.169-1.25-3.768-.372-5.348.067-.124.037-.215-.09-.271a.188.188 0 0 0-.135-.01.246.246 0 0 0-.116.1c-.976 1.375-2.239 1.831-3.788 1.37a.754.754 0 0 1-.431-.341c-.472-.797-.576-1.646-.311-2.55.07-.25-.022-.357-.276-.32l-.216.03a.137.137 0 0 1-.08-.017.14.14 0 0 1-.04-.214c.194-.207.419-.375.677-.502a.627.627 0 0 0 .306-.326c.597-1.505 2.89-5.278 4.832-5.027a.784.784 0 0 1 .476 1.31 17.156 17.156 0 0 1-4.781 3.632.71.71 0 0 0-.336.376c-.402 1.064-.633 2.644.286 3.472 1.721 1.535 4.51-1.952 5.398-3.367a406.413 406.413 0 0 0 9.975-16.712.35.35 0 0 1 .311-.186l2.408-.055a.204.204 0 0 1 .186.104.208.208 0 0 1-.005.213 1867.866 1867.866 0 0 0-11.405 19.11c-.839 1.428-1.466 2.868-1.881 4.32a.944.944 0 0 0 .277.96.949.949 0 0 0 .982.179c2.173-.863 4.716-4.285 5.971-6.227 2.313-3.567 5.027-5.529 9.111-6.868 4.149-1.36 5.308 2.408 1.887 4.41-1.656.966-4.106 1.714-7.351 2.243a.686.686 0 0 0-.416.235c-2.925 3.362-1.686 8.796 3.622 5.143a19.56 19.56 0 0 0 3.422-2.995Zm.888-8.961a.995.995 0 0 0-1.068-.03 19.673 19.673 0 0 0-6.398 6.01c-.13.195-.081.266.146.216 2.92-.632 5.357-2.03 7.31-4.194.753-.833.756-1.5.01-2.002ZM50.93 23.616c-.103-.04-.154-.138-.15-.296 1.465-1.836 4.495-4.861 6.005-1.33.442 1.038.348 2.066-.28 3.087a.49.49 0 0 0-.09.265.318.318 0 0 0 .044.15c.064.098.13.1.2.006 1.145-1.616 4.632-6.071 6.875-4.887 5.012 2.65-2.489 9.232-2.835 12.202a.917.917 0 0 0 1.234.968 6.058 6.058 0 0 0 2.429-1.665c4.636-5.198 8.128-11.525 11.815-17.636.097-.157.231-.206.402-.146.732.271 1.473.255 2.222-.05a.196.196 0 0 1 .227.057.208.208 0 0 1 .02.24l-5.76 9.331c-.074.124-.04.181.105.171.863-.065 2.112-3.888 5.082-3.622 1.382.123 2.235 1 2.559 2.629 1.069 5.408-5.424 9.467-9.734 10.897-1.415.467-2.874.407-3.015-1.38-.023-.287-.109-.307-.256-.06l-8.48 14.29a.425.425 0 0 1-.36.21l-2.519.05c-.14 0-.174-.06-.1-.18a6063.389 6063.389 0 0 1 9.738-16.1c.067-.111.07-.201.01-.272a.185.185 0 0 0-.145-.063.175.175 0 0 0-.136.073c-1.645 2.323-5.534 6.111-7.06 1.52-1.103-3.33 3.96-7.079 4.587-10.265a.958.958 0 0 0-1.315-1.069c-4.094 1.742-8.344 9.187-10.456 13.01a.33.33 0 0 1-.29.171h-2.625a.201.201 0 0 1-.172-.105.19.19 0 0 1 .011-.196 98.205 98.205 0 0 0 6.403-10.757c.153-.303.204-.646.145-.979-.224-1.267-.796-1.542-1.716-.822-.956.749-1.83 1.6-2.619 2.553Zm27.746-2.699c-2.975-1.26-8.76 8.524-9.94 11.063-.244.525-.17.99.221 1.395 2.905 2.975 13.241-10.973 9.719-12.458ZM92.088 29.627c-.188-.01-.281-.06-.281-.15 2.247-2.82 4.891-6.904 7.787-8.991a.72.72 0 0 1 .451-.136c4.089.176 1.189 6.342-.035 8.123a72.614 72.614 0 0 0-3.261 5.223.472.472 0 0 1-.437.256h-2.378c-.224 0-.276-.097-.156-.29 2.278-3.653 5.595-8.109 6.829-12.183a.586.586 0 0 0-.948-.612c-2.8 2.483-5.198 5.86-7.571 8.76Z"/><path fill="currentColor" d="M50.78 23.32c-.003.157.047.256.151.296a56.494 56.494 0 0 0-6.628 10.175.356.356 0 0 1-.346.19l-1.826-.155a.174.174 0 0 0-.116.035.701.701 0 0 1-.687.106.266.266 0 0 1-.157-.165.256.256 0 0 1 .032-.221c1.344-1.962 7.21-10.437 6.833-12.383a.562.562 0 0 0-.913-.321c-4.08 3.437-10.265 14.981-16.06 13.115-1.65-.529-2.55-1.744-2.705-3.648-.411-5.047 6.167-8.885 10.276-9.894.92-.227 1.816-.053 2.689.522a.631.631 0 0 1 .26.346c1.21 4.019-6.326 5.59-9.186 5.986a.655.655 0 0 0-.411.226c-1.251 1.461-1.778 3.152-1.58 5.072.016.167.09.306.22.417 5.996 5.072 14.435-14.827 18.002-12.378 1.264.868 1.134 2.704.637 4.019a.145.145 0 0 0 .251.145l1.265-1.485Zm-10.897-2.559c-2.258-.481-6.287 4.24-7.47 6.016-.104.16-.064.22.12.18 1.7-.37 8.98-3.246 7.751-5.875a.546.546 0 0 0-.401-.32ZM91.806 29.477c0 .09.094.14.281.15-2.508 2.82-7.285 6.779-10.17 3.176-5.539-6.918 11.053-15.578 12.318-11.088.998 3.542-6.9 5.243-9.373 5.645a.632.632 0 0 0-.401.225c-.963 1.184-2.408 4.004-1.29 5.42 2.183 2.774 7.18-1.963 8.635-3.528Zm1.069-8.349a.723.723 0 0 0-.868-.451c-2.895.792-5.404 3.717-7.1 6.106a.13.13 0 0 0 .136.2c1.726-.406 8.765-3.226 7.832-5.855ZM125.823 29.843c-.013-.084-.1-.129-.261-.136a38.359 38.359 0 0 0 5.996-8.755.427.427 0 0 1 .412-.256h2.493c.278 0 .34.117.186.351-2.78 4.255-4.929 7.864-6.447 10.828-.442.856-.28 1.482.486 1.876.134.07.275.089.422.056 1.906-.437 2.343-1.636 3.632-2.65a.066.066 0 0 1 .104.042.072.072 0 0 1-.008.044c-1.159 1.59-3.563 4.415-5.625 2.117-1.57-1.751-.617-3.13-.05-4.852a.062.062 0 0 0 .002-.046.061.061 0 0 0-.032-.034.06.06 0 0 0-.046-.002.056.056 0 0 0-.034.032 3.955 3.955 0 0 1-1.23 1.385Z"/><path fill="currentColor" d="M134.599 33.862c-.391.675-.252.813.417.411 3.609-2.174 6.529-4.893 8.76-8.158a.746.746 0 0 1 .176-.19.199.199 0 0 1 .276.004.2.2 0 0 1 .01.277 29.712 29.712 0 0 1-10.12 8.94.783.783 0 0 0-.347.351c-2.834 5.61-6.517 10.838-12.111 13.793-2.128 1.124-6.608 1.159-5.369-2.61 1.551-4.71 9.528-8.503 13.938-10.3a.67.67 0 0 0 .326-.28l8.51-15.118a.533.533 0 0 1 .491-.286h2.248c.251 0 .315.109.191.326l-7.396 12.84ZM117.5 49.45c5.128 1.792 10.532-8.59 12.408-12.232a.163.163 0 0 0 .018-.096.166.166 0 0 0-.044-.089.168.168 0 0 0-.19-.035c-3.808 1.726-10.049 4.856-12.182 8.133-.782 1.199-1.685 3.737-.01 4.32Z"/><path fill="currentColor" d="M71 38.07h.704v4.28h2.216v.64H71v-4.92ZM79.405 38c.76 0 1.394.24 1.898.722.508.481.761 1.085.761 1.81 0 .726-.256 1.327-.767 1.804-.51.474-1.153.711-1.93.711-.743 0-1.361-.237-1.857-.711-.493-.477-.74-1.073-.74-1.79 0-.734.25-1.343.747-1.824.498-.481 1.127-.722 1.888-.722Zm.028.67c-.563 0-1.027.175-1.391.527-.362.353-.543.802-.543 1.35 0 .53.183.972.547 1.324.363.352.819.528 1.366.528.55 0 1.007-.18 1.374-.539.368-.359.553-.806.553-1.342 0-.52-.185-.959-.553-1.313-.367-.357-.817-.536-1.353-.536ZM89.29 38.07h.669v4.92h-.606l-3.29-3.785v3.786h-.662v-4.92h.57l3.318 3.818V38.07ZM93.475 42.984V38.07h1.659c.67 0 1.199.101 1.588.303.39.2.7.495.93.884.23.39.345.815.345 1.275a2.404 2.404 0 0 1-.732 1.737c-.24.235-.518.412-.835.532a2.576 2.576 0 0 1-.51.148c-.156.023-.452.035-.888.035h-1.557Zm1.585-4.287h-.88v3.66h.901c.352 0 .626-.023.82-.07.196-.05.358-.11.487-.184.131-.075.251-.166.359-.274.347-.353.521-.798.521-1.335 0-.529-.178-.96-.535-1.293a1.698 1.698 0 0 0-.455-.306 1.87 1.87 0 0 0-.482-.159 4.93 4.93 0 0 0-.736-.039ZM103.747 38c.76 0 1.393.24 1.898.722.507.481.761 1.085.761 1.81 0 .726-.256 1.327-.768 1.804-.509.474-1.153.711-1.93.711-.742 0-1.361-.237-1.856-.711-.493-.477-.74-1.073-.74-1.79 0-.734.249-1.343.747-1.824.498-.481 1.127-.722 1.888-.722Zm.028.67c-.564 0-1.027.175-1.391.527-.362.353-.543.802-.543 1.35 0 .53.182.972.546 1.324.364.352.82.528 1.367.528.549 0 1.007-.18 1.373-.539.369-.359.553-.806.553-1.342 0-.52-.184-.959-.553-1.313-.366-.357-.817-.536-1.352-.536ZM113.631 38.07h.669v4.92h-.606l-3.289-3.785v3.786h-.662v-4.92h.57l3.318 3.818V38.07Z"/>
    </svg>