<svg xmlns="http://www.w3.org/2000/svg" fill="none" viewBox="0 0 20 20"><path fill="currentColor" d="M18.82 6.805s-.175-1.274-.716-1.834c-.686-.736-1.452-.74-1.804-.783C13.783 4 10.004 4 10.004 4h-.008S6.217 4 3.7 4.188c-.352.043-1.118.047-1.804.783-.54.56-.713 1.834-.713 1.834S1 8.303 1 9.798v1.4c0 1.495.18 2.993.18 2.993s.175 1.275.713 1.834c.686.737 1.586.712 1.986.79C5.321 16.958 10 17 10 17s3.783-.007 6.3-.191c.352-.044 1.118-.047 1.803-.784.542-.56.718-1.834.718-1.834S19 12.697 19 11.2V9.798c0-1.495-.18-2.993-.18-2.993ZM8.14 12.899V7.704l4.862 2.606L8.14 12.9Z"/></svg>